# xmcd
#
# Track frame offsets:
#	150
#	15202
#	30201
#	45060
#	60087
#	79925
#	98870
#
# Disc length: 1584 seconds
#
# Revision: 1
# Processed by: cddbd v1.5.2PL0 Copyright (c) Steve Scherf et al.
# Submitted via: audiograbber 1.83.01
#
DISCID=34062e07
DTITLE=Hermes House Band - Country Roads
DYEAR=2001
DGENRE=Country
TTITLE0=Original Live Radio Version
TTITLE1=Original Radio Version
TTITLE2=Dance Radio Version
TTITLE3=Happy Party Radio Version
TTITLE4=Original Live Extended Version
TTITLE5=Dance Extended Version
TTITLE6=Happy Party Extended Version
EXTD=
EXTT0=
EXTT1=
EXTT2=
EXTT3=
EXTT4=
EXTT5=
EXTT6=
PLAYORDER=
